<svg xmlns="http://www.w3.org/2000/svg" xmlns:xlink="http://www.w3.org/1999/xlink" width="2000" zoomAndPan="magnify" viewBox="0 0 1500 1499.999933" height="2000" preserveAspectRatio="xMidYMid meet" version="1.0"><defs><clipPath id="421d9c377d"><path d="M 11 980 L 516 980 L 516 1297 L 11 1297 Z M 11 980 " clip-rule="nonzero"/></clipPath><clipPath id="7e36ff5c08"><path d="M -50.109375 1134.691406 L 72.367188 847.898438 L 564.175781 1057.925781 L 441.703125 1344.71875 Z M -50.109375 1134.691406 " clip-rule="nonzero"/></clipPath><clipPath id="68a2df6164"><path d="M 421.097656 996.820312 C 500.03125 1030.53125 536.601562 1122.058594 502.78125 1201.253906 C 468.957031 1280.449219 377.554688 1317.324219 298.621094 1283.617188 C 219.6875 1249.910156 11.128906 991.296875 11.128906 991.296875 C 11.128906 991.296875 342.164062 963.113281 421.097656 996.820312 Z M 421.097656 996.820312 " clip-rule="nonzero"/></clipPath><clipPath id="9e185dd24e"><path d="M 0.0390625 0 L 505 0 L 505 317 L 0.0390625 317 Z M 0.0390625 0 " clip-rule="nonzero"/></clipPath><clipPath id="d681c4ff35"><path d="M -61.109375 154.691406 L 61.367188 -132.101562 L 553.175781 77.925781 L 430.703125 364.71875 Z M -61.109375 154.691406 " clip-rule="nonzero"/></clipPath><clipPath id="c55f163b77"><path d="M 410.097656 16.820312 C 489.03125 50.53125 525.601562 142.058594 491.78125 221.253906 C 457.957031 300.449219 366.554688 337.324219 287.621094 303.617188 C 208.6875 269.910156 0.128906 11.296875 0.128906 11.296875 C 0.128906 11.296875 331.164062 -16.886719 410.097656 16.820312 Z M 410.097656 16.820312 " clip-rule="nonzero"/></clipPath><clipPath id="67a4caaacd"><rect x="0" width="505" y="0" height="317"/></clipPath><clipPath id="297187ea7e"><path d="M 229 995 L 734 995 L 734 1311 L 229 1311 Z M 229 995 " clip-rule="nonzero"/></clipPath><clipPath id="2123f5551c"><path d="M 794.886719 1156.425781 L 672.410156 1443.222656 L 180.601562 1233.195312 L 303.078125 946.398438 Z M 794.886719 1156.425781 " clip-rule="nonzero"/></clipPath><clipPath id="bfd41f3839"><path d="M 323.683594 1294.296875 C 244.75 1260.589844 208.179688 1169.0625 242 1089.863281 C 275.820312 1010.667969 367.226562 973.792969 446.160156 1007.5 C 525.09375 1041.210938 733.648438 1299.824219 733.648438 1299.824219 C 733.648438 1299.824219 402.617188 1328.003906 323.683594 1294.296875 Z M 323.683594 1294.296875 " clip-rule="nonzero"/></clipPath><clipPath id="1b5b2ea044"><path d="M 0 0 L 504.679688 0 L 504.679688 316 L 0 316 Z M 0 0 " clip-rule="nonzero"/></clipPath><clipPath id="4d85a0ef3b"><path d="M 565.886719 161.425781 L 443.410156 448.222656 L -48.398438 238.195312 L 74.078125 -48.601562 Z M 565.886719 161.425781 " clip-rule="nonzero"/></clipPath><clipPath id="017f2ab470"><path d="M 94.683594 299.296875 C 15.75 265.589844 -20.820312 174.0625 13 94.863281 C 46.820312 15.667969 138.226562 -21.207031 217.160156 12.5 C 296.09375 46.210938 504.648438 304.824219 504.648438 304.824219 C 504.648438 304.824219 173.617188 333.003906 94.683594 299.296875 Z M 94.683594 299.296875 " clip-rule="nonzero"/></clipPath><clipPath id="16b3c9c66c"><rect x="0" width="505" y="0" height="316"/></clipPath><clipPath id="7abcc6fbd1"><path d="M 765 997 L 1271 997 L 1271 1313 L 765 1313 Z M 765 997 " clip-rule="nonzero"/></clipPath><clipPath id="26cbbc063c"><path d="M 825.851562 1443.890625 L 705.015625 1156.398438 L 1198.015625 949.183594 L 1318.851562 1236.671875 Z M 825.851562 1443.890625 " clip-rule="nonzero"/></clipPath><clipPath id="5592045828"><path d="M 1054.585938 1009.46875 C 1133.710938 976.210938 1224.90625 1013.605469 1258.273438 1092.992188 C 1291.640625 1172.382812 1254.550781 1263.699219 1175.425781 1296.957031 C 1096.300781 1330.214844 765.433594 1300.144531 765.433594 1300.144531 C 765.433594 1300.144531 975.464844 1042.726562 1054.585938 1009.46875 Z M 1054.585938 1009.46875 " clip-rule="nonzero"/></clipPath><clipPath id="2660ed600f"><path d="M 0.359375 0 L 506 0 L 506 316 L 0.359375 316 Z M 0.359375 0 " clip-rule="nonzero"/></clipPath><clipPath id="b7d2b6d54c"><path d="M 60.851562 446.890625 L -59.984375 159.398438 L 433.015625 -47.816406 L 553.851562 239.671875 Z M 60.851562 446.890625 " clip-rule="nonzero"/></clipPath><clipPath id="4b7b839b75"><path d="M 289.585938 12.46875 C 368.710938 -20.789062 459.90625 16.605469 493.273438 95.992188 C 526.640625 175.382812 489.550781 266.699219 410.425781 299.957031 C 331.300781 333.214844 0.433594 303.144531 0.433594 303.144531 C 0.433594 303.144531 210.464844 45.726562 289.585938 12.46875 Z M 289.585938 12.46875 " clip-rule="nonzero"/></clipPath><clipPath id="42385d405b"><rect x="0" width="506" y="0" height="316"/></clipPath><clipPath id="7041b03f43"><path d="M 984 983 L 1490 983 L 1490 1299 L 984 1299 Z M 984 983 " clip-rule="nonzero"/></clipPath><clipPath id="797e769cbb"><path d="M 1429.265625 851.957031 L 1550.105469 1139.449219 L 1057.105469 1346.664062 L 936.265625 1059.175781 Z M 1429.265625 851.957031 " clip-rule="nonzero"/></clipPath><clipPath id="13f2b23d3f"><path d="M 1200.53125 1286.378906 C 1121.410156 1319.636719 1030.214844 1282.242188 996.847656 1202.855469 C 963.476562 1123.464844 1000.570312 1032.148438 1079.695312 998.890625 C 1158.820312 965.632812 1489.6875 995.703125 1489.6875 995.703125 C 1489.6875 995.703125 1279.65625 1253.121094 1200.53125 1286.378906 Z M 1200.53125 1286.378906 " clip-rule="nonzero"/></clipPath><clipPath id="f496eb733e"><path d="M 0 0 L 505.917969 0 L 505.917969 316 L 0 316 Z M 0 0 " clip-rule="nonzero"/></clipPath><clipPath id="0f84fddc5b"><path d="M 445.265625 -131.042969 L 566.105469 156.449219 L 73.105469 363.664062 L -47.734375 76.175781 Z M 445.265625 -131.042969 " clip-rule="nonzero"/></clipPath><clipPath id="668597ce95"><path d="M 216.53125 303.378906 C 137.410156 336.636719 46.214844 299.242188 12.847656 219.855469 C -20.523438 140.464844 16.570312 49.148438 95.695312 15.890625 C 174.820312 -17.367188 505.6875 12.703125 505.6875 12.703125 C 505.6875 12.703125 295.65625 270.121094 216.53125 303.378906 Z M 216.53125 303.378906 " clip-rule="nonzero"/></clipPath><clipPath id="f626203e1c"><rect x="0" width="506" y="0" height="316"/></clipPath><clipPath id="224178ed4e"><path d="M 243 440 L 617 440 L 617 908 L 243 908 Z M 243 440 " clip-rule="nonzero"/></clipPath><clipPath id="2c42e2766b"><path d="M 115.484375 530.039062 L 371.039062 351.316406 L 677.527344 789.554688 L 421.96875 968.28125 Z M 115.484375 530.039062 " clip-rule="nonzero"/></clipPath><clipPath id="5154e0b719"><path d="M 588.359375 662.058594 C 637.550781 732.394531 620.21875 829.421875 549.648438 878.777344 C 479.078125 928.128906 381.992188 911.121094 332.804688 840.785156 C 283.613281 770.449219 243.261719 440.679688 243.261719 440.679688 C 243.261719 440.679688 539.171875 591.722656 588.359375 662.058594 Z M 588.359375 662.058594 " clip-rule="nonzero"/></clipPath><clipPath id="243dd334e8"><path d="M 0.121094 0.640625 L 374 0.640625 L 374 468 L 0.121094 468 Z M 0.121094 0.640625 " clip-rule="nonzero"/></clipPath><clipPath id="345c52cc99"><path d="M -127.515625 90.039062 L 128.039062 -88.683594 L 434.527344 349.554688 L 178.96875 528.28125 Z M -127.515625 90.039062 " clip-rule="nonzero"/></clipPath><clipPath id="93555e056b"><path d="M 345.359375 222.058594 C 394.550781 292.394531 377.21875 389.421875 306.648438 438.777344 C 236.078125 488.128906 138.992188 471.121094 89.804688 400.785156 C 40.613281 330.449219 0.261719 0.679688 0.261719 0.679688 C 0.261719 0.679688 296.171875 151.722656 345.359375 222.058594 Z M 345.359375 222.058594 " clip-rule="nonzero"/></clipPath><clipPath id="32cf1bd636"><rect x="0" width="374" y="0" height="468"/></clipPath><clipPath id="c6c2635cb9"><path d="M 320 618 L 694 618 L 694 1085 L 320 1085 Z M 320 618 " clip-rule="nonzero"/></clipPath><clipPath id="977623b820"><path d="M 821.3125 995.117188 L 565.753906 1173.84375 L 259.269531 735.601562 L 514.828125 556.875 Z M 821.3125 995.117188 " clip-rule="nonzero"/></clipPath><clipPath id="5a159a5bb2"><path d="M 348.433594 863.097656 C 299.246094 792.761719 316.578125 695.734375 387.148438 646.382812 C 457.71875 597.027344 554.804688 614.039062 603.992188 684.375 C 653.183594 754.707031 693.535156 1084.480469 693.535156 1084.480469 C 693.535156 1084.480469 397.625 933.433594 348.433594 863.097656 Z M 348.433594 863.097656 " clip-rule="nonzero"/></clipPath><clipPath id="ff7d7ae00e"><path d="M 0 0 L 373.601562 0 L 373.601562 466.558594 L 0 466.558594 Z M 0 0 " clip-rule="nonzero"/></clipPath><clipPath id="b6ab46d9aa"><path d="M 501.3125 377.117188 L 245.753906 555.84375 L -60.730469 117.601562 L 194.828125 -61.125 Z M 501.3125 377.117188 " clip-rule="nonzero"/></clipPath><clipPath id="dc5a281df8"><path d="M 28.433594 245.097656 C -20.753906 174.761719 -3.421875 77.734375 67.148438 28.382812 C 137.71875 -20.972656 234.804688 -3.960938 283.992188 66.375 C 333.183594 136.707031 373.535156 466.480469 373.535156 466.480469 C 373.535156 466.480469 77.625 315.433594 28.433594 245.097656 Z M 28.433594 245.097656 " clip-rule="nonzero"/></clipPath><clipPath id="49c8ad01bf"><rect x="0" width="374" y="0" height="467"/></clipPath><clipPath id="b6e179286b"><path d="M 815 617 L 1190 617 L 1190 1084 L 815 1084 Z M 815 617 " clip-rule="nonzero"/></clipPath><clipPath id="c9688f839f"><path d="M 943.269531 1173.164062 L 687.9375 994.117188 L 994.976562 556.265625 L 1250.308594 735.3125 Z M 943.269531 1173.164062 " clip-rule="nonzero"/></clipPath><clipPath id="bfd77df0a6"><path d="M 905.652344 683.648438 C 954.929688 613.375 1052.035156 596.488281 1122.542969 645.929688 C 1193.050781 695.375 1210.261719 792.421875 1160.980469 862.695312 C 1111.703125 932.96875 815.605469 1083.640625 815.605469 1083.640625 C 815.605469 1083.640625 856.371094 753.921875 905.652344 683.648438 Z M 905.652344 683.648438 " clip-rule="nonzero"/></clipPath><clipPath id="8149e19e64"><path d="M 0.519531 0 L 375 0 L 375 466.839844 L 0.519531 466.839844 Z M 0.519531 0 " clip-rule="nonzero"/></clipPath><clipPath id="e80f5f14a7"><path d="M 128.269531 556.164062 L -127.0625 377.117188 L 179.976562 -60.734375 L 435.308594 118.3125 Z M 128.269531 556.164062 " clip-rule="nonzero"/></clipPath><clipPath id="6e7eaa179c"><path d="M 90.652344 66.648438 C 139.929688 -3.625 237.035156 -20.511719 307.542969 28.929688 C 378.050781 78.375 395.261719 175.421875 345.980469 245.695312 C 296.703125 315.96875 0.605469 466.640625 0.605469 466.640625 C 0.605469 466.640625 41.371094 136.921875 90.652344 66.648438 Z M 90.652344 66.648438 " clip-rule="nonzero"/></clipPath><clipPath id="1c4000f965"><rect x="0" width="375" y="0" height="467"/></clipPath><clipPath id="86d9f2bc3d"><path d="M 893 440 L 1267 440 L 1267 907 L 893 907 Z M 893 440 " clip-rule="nonzero"/></clipPath><clipPath id="63c7433546"><path d="M 1138.988281 350.859375 L 1394.320312 529.910156 L 1087.28125 967.761719 L 831.949219 788.710938 Z M 1138.988281 350.859375 " clip-rule="nonzero"/></clipPath><clipPath id="43f2ecff0e"><path d="M 1176.605469 840.378906 C 1127.328125 910.652344 1030.222656 927.539062 959.714844 878.09375 C 889.207031 828.652344 871.996094 731.601562 921.277344 661.328125 C 970.554688 591.054688 1266.652344 440.382812 1266.652344 440.382812 C 1266.652344 440.382812 1225.886719 770.105469 1176.605469 840.378906 Z M 1176.605469 840.378906 " clip-rule="nonzero"/></clipPath><clipPath id="043e120c9e"><path d="M 0 0.160156 L 373.71875 0.160156 L 373.71875 467 L 0 467 Z M 0 0.160156 " clip-rule="nonzero"/></clipPath><clipPath id="80a757fd83"><path d="M 245.988281 -89.140625 L 501.320312 89.910156 L 194.28125 527.761719 L -61.050781 348.710938 Z M 245.988281 -89.140625 " clip-rule="nonzero"/></clipPath><clipPath id="326988c1ab"><path d="M 283.605469 400.378906 C 234.328125 470.652344 137.222656 487.539062 66.714844 438.09375 C -3.792969 388.652344 -21.003906 291.601562 28.277344 221.328125 C 77.554688 151.054688 373.652344 0.382812 373.652344 0.382812 C 373.652344 0.382812 332.886719 330.105469 283.605469 400.378906 Z M 283.605469 400.378906 " clip-rule="nonzero"/></clipPath><clipPath id="0feac1e5be"><rect x="0" width="374" y="0" height="467"/></clipPath><clipPath id="e560dae007"><path d="M 594 67 L 907 67 L 907 603 L 594 603 Z M 594 67 " clip-rule="nonzero"/></clipPath><clipPath id="b7d00eb41d"><path d="M 593.636719 68.191406 L 905.488281 67.683594 L 906.363281 602.460938 L 594.511719 602.96875 Z M 593.636719 68.191406 " clip-rule="nonzero"/></clipPath><clipPath id="03ae4bc72b"><path d="M 906.109375 446.878906 C 906.25 532.707031 836.554688 602.398438 750.4375 602.539062 C 664.320312 602.683594 594.398438 533.21875 594.257812 447.386719 C 594.117188 361.558594 749.5625 67.9375 749.5625 67.9375 C 749.5625 67.9375 905.96875 361.046875 906.109375 446.878906 Z M 906.109375 446.878906 " clip-rule="nonzero"/></clipPath><clipPath id="31065765d1"><path d="M 0 0.921875 L 312.480469 0.921875 L 312.480469 535.878906 L 0 535.878906 Z M 0 0.921875 " clip-rule="nonzero"/></clipPath><clipPath id="83739a4b45"><path d="M -0.363281 1.191406 L 311.488281 0.683594 L 312.363281 535.460938 L 0.511719 535.96875 Z M -0.363281 1.191406 " clip-rule="nonzero"/></clipPath><clipPath id="21648ccfc5"><path d="M 312.109375 379.878906 C 312.25 465.707031 242.554688 535.398438 156.4375 535.539062 C 70.320312 535.683594 0.398438 466.21875 0.257812 380.386719 C 0.117188 294.558594 155.5625 0.9375 155.5625 0.9375 C 155.5625 0.9375 311.96875 294.046875 312.109375 379.878906 Z M 312.109375 379.878906 " clip-rule="nonzero"/></clipPath><clipPath id="686e588398"><rect x="0" width="313" y="0" height="536"/></clipPath><clipPath id="0c23d4d2ac"><path d="M 594 318 L 907 318 L 907 854 L 594 854 Z M 594 318 " clip-rule="nonzero"/></clipPath><clipPath id="5b45879b96"><path d="M 906.796875 853.316406 L 594.941406 853.828125 L 594.070312 319.050781 L 905.921875 318.539062 Z M 906.796875 853.316406 " clip-rule="nonzero"/></clipPath><clipPath id="253ae2d5e1"><path d="M 594.324219 474.632812 C 594.183594 388.800781 663.878906 319.109375 749.996094 318.96875 C 836.109375 318.828125 906.035156 388.292969 906.175781 474.121094 C 906.316406 559.953125 750.867188 853.574219 750.867188 853.574219 C 750.867188 853.574219 594.464844 560.460938 594.324219 474.632812 Z M 594.324219 474.632812 " clip-rule="nonzero"/></clipPath><clipPath id="7261c29da4"><path d="M 0 0.71875 L 312.480469 0.71875 L 312.480469 535.679688 L 0 535.679688 Z M 0 0.71875 " clip-rule="nonzero"/></clipPath><clipPath id="427bbda231"><path d="M 312.796875 535.316406 L 0.941406 535.828125 L 0.0703125 1.050781 L 311.921875 0.539062 Z M 312.796875 535.316406 " clip-rule="nonzero"/></clipPath><clipPath id="93ea8e60e0"><path d="M 0.324219 156.632812 C 0.183594 70.800781 69.878906 1.109375 155.996094 0.96875 C 242.109375 0.828125 312.035156 70.292969 312.175781 156.121094 C 312.316406 241.953125 156.867188 535.574219 156.867188 535.574219 C 156.867188 535.574219 0.464844 242.460938 0.324219 156.632812 Z M 0.324219 156.632812 " clip-rule="nonzero"/></clipPath><clipPath id="288ed99829"><rect x="0" width="313" y="0" height="536"/></clipPath></defs><g clip-path="url(#421d9c377d)"><g clip-path="url(#7e36ff5c08)"><g clip-path="url(#68a2df6164)"><g transform="matrix(1, 0, 0, 1, 11, 980)"><g clip-path="url(#67a4caaacd)"><g clip-path="url(#9e185dd24e)"><g clip-path="url(#d681c4ff35)"><g clip-path="url(#c55f163b77)"><path fill="#0f8f64" d="M -61.109375 154.691406 L 61.367188 -132.101562 L 553.175781 77.925781 L 430.703125 364.71875 Z M -61.109375 154.691406 " fill-opacity="1" fill-rule="nonzero"/></g></g></g></g></g></g></g></g><g clip-path="url(#297187ea7e)"><g clip-path="url(#2123f5551c)"><g clip-path="url(#bfd41f3839)"><g transform="matrix(1, 0, 0, 1, 229, 995)"><g clip-path="url(#16b3c9c66c)"><g clip-path="url(#1b5b2ea044)"><g clip-path="url(#4d85a0ef3b)"><g clip-path="url(#017f2ab470)"><path fill="#0f8f64" d="M 565.886719 161.425781 L 443.410156 448.222656 L -48.398438 238.195312 L 74.078125 -48.601562 Z M 565.886719 161.425781 " fill-opacity="1" fill-rule="nonzero"/></g></g></g></g></g></g></g></g><g clip-path="url(#7abcc6fbd1)"><g clip-path="url(#26cbbc063c)"><g clip-path="url(#5592045828)"><g transform="matrix(1, 0, 0, 1, 765, 997)"><g clip-path="url(#42385d405b)"><g clip-path="url(#2660ed600f)"><g clip-path="url(#b7d2b6d54c)"><g clip-path="url(#4b7b839b75)"><path fill="#0f8f64" d="M 60.851562 446.890625 L -59.984375 159.398438 L 433.015625 -47.816406 L 553.851562 239.671875 Z M 60.851562 446.890625 " fill-opacity="1" fill-rule="nonzero"/></g></g></g></g></g></g></g></g><g clip-path="url(#7041b03f43)"><g clip-path="url(#797e769cbb)"><g clip-path="url(#13f2b23d3f)"><g transform="matrix(1, 0, 0, 1, 984, 983)"><g clip-path="url(#f626203e1c)"><g clip-path="url(#f496eb733e)"><g clip-path="url(#0f84fddc5b)"><g clip-path="url(#668597ce95)"><path fill="#0f8f64" d="M 445.265625 -131.042969 L 566.105469 156.449219 L 73.105469 363.664062 L -47.734375 76.175781 Z M 445.265625 -131.042969 " fill-opacity="1" fill-rule="nonzero"/></g></g></g></g></g></g></g></g><g clip-path="url(#224178ed4e)"><g clip-path="url(#2c42e2766b)"><g clip-path="url(#5154e0b719)"><g transform="matrix(1, 0, 0, 1, 243, 440)"><g clip-path="url(#32cf1bd636)"><g clip-path="url(#243dd334e8)"><g clip-path="url(#345c52cc99)"><g clip-path="url(#93555e056b)"><path fill="#0f8f64" d="M -127.515625 90.039062 L 128.039062 -88.683594 L 434.527344 349.554688 L 178.96875 528.28125 Z M -127.515625 90.039062 " fill-opacity="1" fill-rule="nonzero"/></g></g></g></g></g></g></g></g><g clip-path="url(#c6c2635cb9)"><g clip-path="url(#977623b820)"><g clip-path="url(#5a159a5bb2)"><g transform="matrix(1, 0, 0, 1, 320, 618)"><g clip-path="url(#49c8ad01bf)"><g clip-path="url(#ff7d7ae00e)"><g clip-path="url(#b6ab46d9aa)"><g clip-path="url(#dc5a281df8)"><path fill="#0f8f64" d="M 501.3125 377.117188 L 245.753906 555.84375 L -60.730469 117.601562 L 194.828125 -61.125 Z M 501.3125 377.117188 " fill-opacity="1" fill-rule="nonzero"/></g></g></g></g></g></g></g></g><g clip-path="url(#b6e179286b)"><g clip-path="url(#c9688f839f)"><g clip-path="url(#bfd77df0a6)"><g transform="matrix(1, 0, 0, 1, 815, 617)"><g clip-path="url(#1c4000f965)"><g clip-path="url(#8149e19e64)"><g clip-path="url(#e80f5f14a7)"><g clip-path="url(#6e7eaa179c)"><path fill="#0f8f64" d="M 128.269531 556.164062 L -127.0625 377.117188 L 179.976562 -60.734375 L 435.308594 118.3125 Z M 128.269531 556.164062 " fill-opacity="1" fill-rule="nonzero"/></g></g></g></g></g></g></g></g><g clip-path="url(#86d9f2bc3d)"><g clip-path="url(#63c7433546)"><g clip-path="url(#43f2ecff0e)"><g transform="matrix(1, 0, 0, 1, 893, 440)"><g clip-path="url(#0feac1e5be)"><g clip-path="url(#043e120c9e)"><g clip-path="url(#80a757fd83)"><g clip-path="url(#326988c1ab)"><path fill="#0f8f64" d="M 245.988281 -89.140625 L 501.320312 89.910156 L 194.28125 527.761719 L -61.050781 348.710938 Z M 245.988281 -89.140625 " fill-opacity="1" fill-rule="nonzero"/></g></g></g></g></g></g></g></g><g clip-path="url(#e560dae007)"><g clip-path="url(#b7d00eb41d)"><g clip-path="url(#03ae4bc72b)"><g transform="matrix(1, 0, 0, 1, 594, 67)"><g clip-path="url(#686e588398)"><g clip-path="url(#31065765d1)"><g clip-path="url(#83739a4b45)"><g clip-path="url(#21648ccfc5)"><path fill="#0f8f64" d="M -0.363281 1.191406 L 311.488281 0.683594 L 312.363281 535.460938 L 0.511719 535.96875 Z M -0.363281 1.191406 " fill-opacity="1" fill-rule="nonzero"/></g></g></g></g></g></g></g></g><g clip-path="url(#0c23d4d2ac)"><g clip-path="url(#5b45879b96)"><g clip-path="url(#253ae2d5e1)"><g transform="matrix(1, 0, 0, 1, 594, 318)"><g clip-path="url(#288ed99829)"><g clip-path="url(#7261c29da4)"><g clip-path="url(#427bbda231)"><g clip-path="url(#93ea8e60e0)"><path fill="#0f8f64" d="M 312.796875 535.316406 L 0.941406 535.828125 L 0.0703125 1.050781 L 311.921875 0.539062 Z M 312.796875 535.316406 " fill-opacity="1" fill-rule="nonzero"/></g></g></g></g></g></g></g></g></svg>